<svg xmlns="http://www.w3.org/2000/svg" width="207.726" height="269.703" viewBox="0 0 207.726 269.703">
  <g id="signet" transform="translate(-1138.552 -114.722)">
    <path id="left-arrow" d="M-429.542,106.21a15.217,15.217,0,0,1,0-21.522l13.062-13.063L-429.436,58.67a14.9,14.9,0,0,1,0-21.073,14.9,14.9,0,0,1,21.073,0l21.924,21.925a15.321,15.321,0,0,1,1.94,1.643,15.219,15.219,0,0,1,0,21.522L-408.02,106.21a15.17,15.17,0,0,1-10.761,4.458,15.168,15.168,0,0,1-10.761-4.458Z" transform="translate(1572.552 183.725)" fill="gold"/>
    <path id="right-arrow" d="M-395.728,196.45a35,35,0,0,1,0-49.5l74.6-74.6-75.6-75.6a35,35,0,0,1,0-49.5,35,35,0,0,1,49.5,0l96.175,96.174a35.283,35.283,0,0,1,4.527,3.826,35,35,0,0,1,0,49.5l-99.7,99.7a34.887,34.887,0,0,1-24.752,10.25A34.891,34.891,0,0,1-395.728,196.45Z" transform="translate(1582.552 177.725)" fill="gold"/>
  </g>
</svg>
